<svg version="1.1" id="Layer_1" xmlns="http://www.w3.org/2000/svg" xmlns:xlink="http://www.w3.org/1999/xlink" x="0px" y="0px"
	 width="100%" viewBox="0 0 752 800" enable-background="new 0 0 752 800" xml:space="preserve">
<path fill="#000000" opacity="1.000000" stroke="none" 
	d="
M381.449982,801.000000 
	C378.890198,788.122437 376.730835,775.252686 374.684326,762.365051 
	C372.583771,749.137573 370.593475,735.892517 368.446625,721.951782 
	C364.089783,726.267883 362.153717,731.428101 359.550293,736.038086 
	C349.821167,753.265869 340.270538,770.600281 331.032806,788.095215 
	C328.842621,792.243103 326.479370,793.344666 322.126801,792.380859 
	C318.065308,791.481567 318.166748,788.327942 317.708374,785.524658 
	C314.371185,765.115906 311.069122,744.700806 307.921082,724.262268 
	C307.253448,719.927734 306.845886,715.578735 305.378235,710.036987 
	C302.139343,715.826172 299.518829,720.373962 297.025696,724.990540 
	C287.624268,742.399231 278.283051,759.840454 268.878357,777.247375 
	C265.705139,783.120544 265.626770,783.096924 256.629822,780.344238 
	C259.536591,774.725220 262.312500,769.133911 265.287231,763.650452 
	C274.720337,746.261780 284.229340,728.914185 293.705200,711.548706 
	C296.013153,707.319214 298.494995,703.170410 300.542542,698.817749 
	C301.990601,695.739563 304.296204,695.064514 307.048248,695.918518 
	C309.682098,696.735840 312.880859,695.952332 313.597626,700.881409 
	C317.168823,725.441162 321.401459,749.904846 325.418884,774.399414 
	C325.493683,774.855469 325.785614,775.275879 326.321777,776.505249 
	C329.935150,772.736694 331.488617,768.169556 333.727966,764.190613 
	C343.674316,746.517456 353.349518,728.691040 363.023651,710.866211 
	C364.634949,707.897339 366.578339,706.082275 370.129913,706.841431 
	C373.502289,707.562256 376.363586,708.059204 376.985870,712.826782 
	C379.084381,728.903931 381.850708,744.893372 384.313538,760.923767 
	C386.322815,774.002136 388.263153,787.091064 390.117035,800.587646 
	C387.299988,801.000000 384.599976,801.000000 381.449982,801.000000 
z"/>
<path fill="#000000" opacity="1.000000" stroke="none" 
	d="
M753.000000,423.545898 
	C734.044128,429.944763 715.088257,435.889526 695.268677,442.105133 
	C700.867798,447.547363 707.163818,449.871674 712.760498,453.210052 
	C723.315430,459.506042 734.128967,465.367584 744.713196,471.616119 
	C750.492554,475.027985 750.679016,476.497955 747.109558,483.217621 
	C740.490967,479.509735 733.844360,475.851196 727.260132,472.083618 
	C714.576538,464.825836 701.960327,457.449829 689.247314,450.244263 
	C685.010315,447.842865 681.346313,445.762085 683.412231,439.585358 
	C684.316711,436.880981 685.574097,435.814758 687.872192,435.069183 
	C709.344360,428.103027 730.810913,421.119629 752.639526,414.070618 
	C753.000000,417.030609 753.000000,420.061188 753.000000,423.545898 
z"/>
<path fill="#000000" opacity="1.000000" stroke="none" 
	d="
M418.233856,114.975052 
	C415.994141,114.049850 415.799377,112.498901 415.610474,110.744072 
	C413.999298,95.775688 412.364227,80.809319 410.616577,65.856346 
	C409.099487,52.876286 407.398895,39.917759 405.845825,26.941767 
	C405.531769,24.317825 405.349274,21.651115 406.066864,19.059092 
	C413.296631,18.323915 414.621338,19.049324 415.452881,25.684074 
	C417.242859,39.965233 418.758179,54.281040 420.353271,68.586311 
	C421.417084,78.126900 422.400513,87.676529 423.491150,97.213959 
	C423.613770,98.286148 424.200592,99.305244 424.856262,101.146950 
	C431.711456,89.910240 438.180664,79.326500 444.629364,68.730263 
	C451.192932,57.945316 457.853821,47.216808 464.225861,36.319572 
	C466.509125,32.414768 469.014526,31.210304 473.509705,32.524921 
	C477.632202,33.730553 477.042664,36.601070 477.382843,39.507870 
	C478.921143,52.651913 480.611237,65.778259 482.133911,78.924042 
	C483.295746,88.954407 484.304749,99.002693 485.340088,109.047295 
	C485.508026,110.676651 485.255798,112.395699 487.287659,113.893509 
	C492.465637,105.383484 497.642517,96.954384 502.740967,88.478111 
	C510.962311,74.809944 519.040771,61.054817 527.370667,47.453442 
	C530.483704,42.370270 534.191162,46.443157 538.439087,46.976639 
	C532.677856,56.713135 527.307068,65.832779 521.894531,74.927544 
	C511.868988,91.773628 501.654449,108.510757 491.900940,125.512604 
	C489.610809,129.504684 487.119385,130.085236 483.154236,129.273041 
	C479.095856,128.441742 478.057861,125.823471 477.639343,122.210754 
	C475.411926,102.983696 473.039093,83.773544 470.776703,64.550461 
	C470.144989,59.182655 469.717560,53.790802 469.196381,48.409977 
	C468.766052,48.306149 468.335693,48.202316 467.905334,48.098488 
	C464.629608,53.320457 461.288177,58.502579 458.090332,63.771809 
	C448.178436,80.104088 438.160187,96.375679 428.541779,112.879784 
	C425.692047,117.769608 422.208099,115.692360 418.233856,114.975052 
z"/>
<path fill="#000000" opacity="1.000000" stroke="none" 
	d="
M96.047279,509.595856 
	C108.462906,514.949341 116.650589,524.071167 122.258514,535.648254 
	C127.040993,545.521179 131.559158,555.522217 136.178162,565.474060 
	C136.940109,567.115723 137.740891,568.765198 137.456772,571.280090 
	C128.836990,575.233521 119.943726,579.284851 111.073692,583.386414 
	C93.431343,591.544312 75.796890,599.719421 58.174351,607.919983 
	C56.352238,608.767822 54.642952,609.422729 53.636673,606.993042 
	C47.363403,591.845764 38.054401,577.933716 34.617352,561.644348 
	C28.838333,534.255676 45.711979,513.397705 70.225571,507.674072 
	C78.910522,505.646210 87.357323,506.502899 96.047279,509.595856 
M53.887459,586.713928 
	C55.599350,589.846924 56.611210,593.405212 59.256989,596.271729 
	C80.644348,586.329712 101.705193,576.496216 122.819107,566.778076 
	C125.517082,565.536316 125.638023,563.996704 124.540771,561.651489 
	C120.745621,553.539917 117.567505,545.083740 113.151207,537.330200 
	C103.676292,520.695557 86.412201,511.479218 66.358955,519.295471 
	C50.263508,525.569092 39.572346,543.031006 43.149555,559.768860 
	C45.170189,569.223511 50.142311,577.274963 53.887459,586.713928 
z"/>
<path fill="#000000" opacity="1.000000" stroke="none" 
	d="
M751.375671,282.996521 
	C752.462524,305.903503 734.217163,323.587891 714.080505,327.302429 
	C693.099976,331.172607 674.371948,321.989960 665.057861,302.737335 
	C659.213745,290.657379 654.332703,278.111542 649.018494,265.775177 
	C647.886780,263.147949 647.957825,261.300537 651.191345,259.982971 
	C676.847778,249.528778 702.440247,238.917816 728.058960,228.370834 
	C729.422119,227.809677 730.844177,227.391632 732.738647,226.733276 
	C735.513489,233.304901 738.410400,239.599731 740.845093,246.068542 
	C744.223450,255.044907 748.884399,263.536255 750.731201,273.113220 
	C751.342712,276.284637 751.184998,279.382935 751.375671,282.996521 
M665.572754,265.179108 
	C663.855591,266.404785 661.348816,266.201172 659.810730,268.466827 
	C664.214233,278.688019 667.425964,289.612274 673.282898,299.281982 
	C682.739807,314.895233 700.709412,325.006195 722.116028,313.941254 
	C736.164978,306.679474 743.641663,295.087158 742.479736,279.268585 
	C741.430237,264.978607 733.609863,252.791229 728.364563,239.209503 
	C717.573181,243.709641 707.353638,248.006195 697.106079,252.234863 
	C686.833923,256.473633 676.533752,260.644684 665.572754,265.179108 
z"/>
<path fill="#000000" opacity="1.000000" stroke="none" 
	d="
M629.468994,146.665192 
	C650.894348,148.063309 662.300354,166.371613 662.289673,180.857040 
	C662.276978,198.080002 647.500183,214.236801 630.535706,216.444519 
	C610.759216,219.018173 594.331055,204.891190 591.842041,185.724777 
	C591.595581,183.826691 592.157715,181.823608 592.431702,178.956619 
	C590.272034,180.924225 588.400879,182.358353 586.864563,184.089661 
	C584.315613,186.962143 582.275513,186.340134 579.803345,183.884659 
	C577.129089,181.228470 577.526367,179.278122 580.069763,176.805206 
	C596.768250,160.569519 613.400696,144.265579 629.995605,127.923889 
	C635.320435,122.680298 640.466492,117.255188 645.560852,112.049614 
	C653.432373,116.326233 653.821899,118.238373 648.109741,123.819229 
	C641.689453,130.091843 635.103638,136.194672 628.644226,142.427780 
	C627.368469,143.658829 625.790283,144.714798 625.244995,146.665710 
	C626.577576,146.665710 627.831787,146.665710 629.468994,146.665192 
M602.295593,192.086395 
	C608.646729,203.576233 616.926575,208.066345 629.248779,206.702972 
	C643.112000,205.169128 655.262512,188.501877 652.036133,175.444809 
	C648.334412,160.464539 633.926514,151.519638 620.330261,155.760864 
	C604.864258,160.585327 596.543640,176.733200 602.295593,192.086395 
z"/>
<path fill="#000000" opacity="1.000000" stroke="none" 
	d="
M561.277527,696.640381 
	C551.891357,684.788696 549.205811,671.844788 555.966431,658.647156 
	C563.451294,644.035339 576.283569,637.785767 593.425720,640.003174 
	C587.716553,630.834290 580.879150,623.157776 574.774231,614.957581 
	C572.760010,612.252136 571.845520,610.290649 575.092224,607.928223 
	C578.150940,605.702698 579.957581,605.476135 582.667969,609.050415 
	C599.116394,630.742004 615.912842,652.169861 632.607361,673.674683 
	C637.765198,680.318726 637.627441,681.053467 630.093140,685.028198 
	C626.935181,683.704346 626.350037,679.688843 622.767944,677.817505 
	C619.696777,697.098389 608.406494,708.376831 589.216370,710.039429 
	C578.043396,711.007507 568.678528,705.663940 561.277527,696.640381 
M572.435303,694.066162 
	C583.374817,702.652161 594.729980,702.869507 605.183838,694.692993 
	C614.196411,687.643799 617.040100,676.054382 612.438293,665.126953 
	C607.462280,653.310913 594.165955,645.239502 583.472473,647.763428 
	C573.371826,650.147461 565.935974,656.068909 563.112427,666.165161 
	C560.104126,676.921875 564.063843,686.020752 572.435303,694.066162 
z"/>
<path fill="#000000" opacity="1.000000" stroke="none" 
	d="
M206.027313,180.028748 
	C197.970551,188.408127 188.438538,191.614670 176.347061,189.947495 
	C183.366226,200.578461 192.576385,208.506912 199.194519,218.678711 
	C196.813187,220.593826 194.773880,222.233887 192.624191,223.962708 
	C187.741821,221.192154 185.047287,216.432983 181.658157,212.457886 
	C166.266022,194.404419 151.094574,176.162781 135.850006,157.983551 
	C135.103745,157.093658 134.491302,156.082169 133.689072,155.250244 
	C130.520187,151.964096 132.787262,150.431473 135.402924,148.348450 
	C138.343842,146.006393 139.770828,147.229874 141.302444,149.694763 
	C142.431244,151.511383 143.818939,153.073868 145.951889,153.927170 
	C150.169754,133.716049 159.981995,122.521034 174.934479,120.653122 
	C191.148605,118.627602 205.106018,126.182999 212.378296,140.922165 
	C219.317917,154.987076 217.153534,168.779877 206.027313,180.028748 
M169.265488,179.239426 
	C181.031815,184.997528 193.704147,182.350388 200.884964,172.634445 
	C210.327927,159.857651 207.396835,143.921112 193.918564,134.440369 
	C185.708527,128.665344 176.935898,127.675957 168.186676,132.450363 
	C159.372833,137.260040 153.811722,144.467087 154.243042,155.304993 
	C154.666229,165.938828 160.171539,173.251724 169.265488,179.239426 
z"/>
<path fill="#000000" opacity="1.000000" stroke="none" 
	d="
M128.682526,641.220337 
	C134.493317,624.888000 148.074829,614.618774 163.367126,614.651855 
	C181.899765,614.692017 196.894943,629.414246 197.354797,648.017151 
	C197.371094,648.676514 197.423492,649.334961 197.471848,650.230408 
	C201.409241,649.167542 202.269867,644.782104 205.774521,643.064331 
	C207.727142,644.819702 209.685120,646.579834 211.560593,648.265808 
	C211.682587,650.311890 210.446396,651.462280 209.307831,652.671265 
	C198.130890,664.540039 186.913071,676.370605 175.795288,688.294495 
	C166.722916,698.024719 157.673843,707.780945 148.839874,717.725952 
	C146.851212,719.964722 145.452408,720.822083 143.320221,718.401855 
	C141.502411,716.338562 138.041748,714.865173 141.541748,711.178467 
	C148.749512,703.586182 155.701691,695.751038 162.750153,688.007751 
	C163.511902,687.170898 164.214951,686.280579 165.768204,684.439697 
	C149.971130,685.684326 138.943848,679.354553 131.466705,666.717041 
	C126.783157,658.801208 126.793304,650.307739 128.682526,641.220337 
M153.824799,626.292969 
	C149.014893,628.215027 145.559235,631.911194 142.456711,635.753601 
	C136.398422,643.256592 134.507339,651.807617 138.571533,660.829834 
	C142.461868,669.466187 148.943787,675.324463 158.716125,676.658569 
	C170.688690,678.293152 178.969681,672.293945 185.393311,663.133057 
	C191.429703,654.524414 190.937012,642.419800 184.663818,634.733948 
	C176.485489,624.713867 165.276123,621.482300 153.824799,626.292969 
z"/>
<path fill="#000000" opacity="1.000000" stroke="none" 
	d="
M666.117310,514.607910 
	C669.272949,498.293457 677.056946,486.596588 693.661316,482.238373 
	C709.015320,478.208435 730.120239,488.679260 735.290955,503.166138 
	C741.534607,520.659119 734.114685,539.784363 718.034363,546.945312 
	C709.819153,550.603699 701.214355,550.051819 692.659424,548.031616 
	C689.174011,547.208557 688.976501,545.081116 690.045288,542.011780 
	C695.226318,527.133240 700.257019,512.202393 705.327820,497.285553 
	C707.229370,491.691711 706.994324,491.746002 701.141052,491.275635 
	C681.301331,489.681488 669.939270,514.457397 676.086121,528.140869 
	C677.546753,531.392273 677.222412,533.331238 673.619385,534.593994 
	C671.061951,535.490173 669.630798,535.131714 668.586548,532.480103 
	C666.363708,526.835510 664.980652,521.118469 666.117310,514.607910 
M722.796204,500.725525 
	C722.084229,500.024628 721.405823,499.285278 720.654846,498.629028 
	C715.359863,494.001862 714.368164,494.274872 712.129272,500.939240 
	C708.314697,512.293518 704.465332,523.636292 700.704163,535.008179 
	C699.124817,539.783142 699.742981,540.733765 704.739136,540.614868 
	C714.130310,540.391418 721.453796,536.367004 725.778442,527.858643 
	C730.507141,518.555298 729.911133,509.577209 722.796204,500.725525 
z"/>
<path fill="#000000" opacity="1.000000" stroke="none" 
	d="
M543.406982,98.227570 
	C557.053589,90.002182 574.465454,92.507462 585.710266,104.066872 
	C595.985352,114.629417 597.435242,132.763397 589.252930,145.601395 
	C587.342041,148.599564 585.580078,147.523315 583.502380,146.274261 
	C570.132202,138.236710 556.760315,130.202057 543.396851,122.153328 
	C538.003235,118.904755 536.443359,119.593285 535.444092,125.721794 
	C533.180969,139.601715 544.564575,154.702316 558.702576,156.653870 
	C561.672668,157.063858 564.605957,156.971970 567.571289,156.700668 
	C570.240784,156.456421 572.073364,157.326767 572.298157,160.431046 
	C572.530457,163.639313 570.927551,164.961395 568.003052,165.289749 
	C546.331665,167.722824 524.485901,151.206558 525.799927,127.685623 
	C526.491333,115.310379 532.270752,105.192947 543.406982,98.227570 
M578.289673,109.210320 
	C568.661987,100.552170 555.362366,99.864334 546.490784,107.565765 
	C542.338989,111.169945 542.364258,112.404564 546.976379,115.219826 
	C557.477722,121.629929 568.009644,127.990829 578.585754,134.276535 
	C579.918335,135.068527 581.268433,136.349503 583.100952,135.759338 
	C587.649963,126.294373 586.213562,117.684441 578.289673,109.210320 
z"/>
<path fill="#000000" opacity="1.000000" stroke="none" 
	d="
M221.905075,87.868103 
	C236.169495,76.217911 252.282944,75.698433 266.036591,86.159439 
	C270.254730,89.367752 272.878021,93.800072 275.466431,98.252419 
	C277.042389,100.963203 276.227386,102.914642 273.386475,104.265648 
	C260.032501,110.616241 246.793121,117.215591 233.340637,123.348434 
	C224.817703,127.233955 224.492569,127.853287 231.162064,134.098511 
	C239.915070,142.294662 256.405609,141.478836 266.356842,132.626602 
	C270.320190,129.100922 272.838745,124.725990 275.042358,120.139465 
	C283.130615,122.109261 283.834778,123.497864 279.362549,130.520889 
	C273.363159,139.942123 264.584808,145.714294 253.764023,148.154877 
	C241.047516,151.023010 229.834244,147.535126 221.243347,137.989365 
	C211.541565,127.209251 209.040955,114.335663 213.350540,100.362038 
	C214.856979,95.477470 217.948898,91.571716 221.905075,87.868103 
M223.494934,100.060417 
	C220.057602,106.331703 219.146011,112.733604 222.586884,120.251266 
	C236.767181,113.347649 250.668793,106.579712 264.892731,99.654854 
	C260.716370,91.588684 254.170624,87.962387 246.492401,87.571701 
	C237.012054,87.089348 228.990997,90.857109 223.494934,100.060417 
z"/>
<path fill="#000000" opacity="1.000000" stroke="none" 
	d="
M492.033569,690.066833 
	C500.613892,682.648315 509.864868,678.282349 521.251038,678.558655 
	C536.950928,678.939758 550.763367,689.845886 554.220825,705.351501 
	C558.829041,726.017517 548.810181,742.965271 528.344116,747.649170 
	C511.422668,751.521912 497.980621,742.710510 490.688263,727.723999 
	C489.010803,724.276733 490.773712,722.960022 493.565247,721.758667 
	C507.454407,715.781860 521.308105,709.722778 535.191040,703.731506 
	C537.316895,702.814026 539.470947,702.007629 540.974792,700.263611 
	C536.698120,689.234192 521.578247,683.995850 508.944733,689.438660 
	C501.989441,692.435242 496.371246,696.882812 493.275665,703.971313 
	C492.227112,706.372375 490.696350,706.299927 488.896423,705.270752 
	C487.206482,704.304565 484.515076,704.236023 485.395355,700.888428 
	C486.501923,696.680054 489.368408,693.669250 492.033569,690.066833 
M525.866943,739.597961 
	C529.322144,738.879272 532.506958,737.458435 535.539551,735.714661 
	C542.974731,731.439270 547.536011,720.599487 546.179565,712.690979 
	C545.327209,707.721802 543.114563,708.138977 539.749512,709.621643 
	C531.247925,713.367554 522.641785,716.891785 514.259949,720.887451 
	C510.009338,722.913757 505.127258,723.843384 501.604370,727.199036 
	C504.774048,735.657410 512.736877,739.814331 525.866943,739.597961 
z"/>
<path fill="#000000" opacity="1.000000" stroke="none" 
	d="
M691.944702,400.010376 
	C682.563293,392.127899 679.346313,372.580292 684.313721,360.335205 
	C689.853271,346.679688 702.025513,338.940826 717.113708,338.593079 
	C746.302612,337.920441 759.167175,366.214691 749.180725,387.212463 
	C743.180298,399.829102 732.091248,405.011688 718.241821,406.080658 
	C717.358154,399.598907 716.435242,393.416779 715.686890,387.213623 
	C714.279419,375.548065 712.948792,363.873047 711.638611,352.196075 
	C711.250183,348.734528 709.223694,349.220825 706.983765,350.102661 
	C698.623535,353.393829 693.314270,359.415588 691.428101,368.184357 
	C689.210693,378.492615 691.947693,387.506317 699.165222,395.179291 
	C700.067688,396.138763 700.898254,397.165894 701.786743,398.190002 
	C700.811279,400.774384 699.011597,402.387268 696.893372,403.771942 
	C694.644897,403.441315 693.689636,401.482300 691.944702,400.010376 
M739.182861,357.378937 
	C733.860229,351.478485 727.838379,347.211853 719.076233,348.742676 
	C719.404114,355.942780 720.259888,362.943939 721.224426,369.955261 
	C722.214294,377.151611 722.651550,384.422241 723.496338,391.640961 
	C723.944885,395.474213 725.976746,396.021118 729.413513,394.421844 
	C743.661438,387.791534 748.180237,371.832428 739.182861,357.378937 
z"/>
<path fill="#000000" opacity="1.000000" stroke="none" 
	d="
M230.523712,663.288940 
	C247.004639,664.806763 260.008789,675.187500 264.557648,690.271790 
	C268.271301,702.586487 262.362152,720.120056 251.865219,727.932556 
	C239.206696,737.353882 225.229431,737.738770 212.374969,729.863708 
	C197.522812,720.764587 192.641022,702.011047 200.819702,685.255432 
	C202.457977,681.899109 204.106659,681.497192 207.369080,683.336304 
	C221.843750,691.495972 236.453400,699.416382 251.028519,707.397278 
	C251.734283,707.783691 252.575195,707.923340 253.293350,708.158386 
	C259.304413,700.740662 256.204407,689.362000 250.995804,683.263611 
	C243.837357,674.882324 234.927902,670.017517 223.378983,672.285889 
	C220.339966,672.882751 218.205795,672.278687 217.739441,668.741577 
	C217.273575,665.208435 219.159103,663.747620 222.274872,663.729858 
	C224.916245,663.714783 227.412659,661.973022 230.523712,663.288940 
M223.126480,700.479919 
	C217.939087,698.336853 213.519730,694.616577 208.158264,692.873901 
	C201.608871,704.343323 207.751678,719.532410 221.370468,725.220825 
	C232.396011,729.826050 247.465256,723.322510 249.113205,715.429077 
	C241.266602,709.653809 232.013123,706.104370 223.126480,700.479919 
z"/>
<path fill="#000000" opacity="1.000000" stroke="none" 
	d="
M82.392944,431.191864 
	C88.152275,432.141937 91.016716,436.351135 93.499802,440.624146 
	C103.736023,458.239044 100.612015,481.049896 83.076668,491.625244 
	C67.525482,501.003998 45.598839,498.540894 35.317001,483.312805 
	C21.265955,462.502258 30.040678,435.139740 57.665695,429.816406 
	C60.651844,429.240997 61.972332,430.196686 62.479095,433.598602 
	C64.867065,449.628937 67.849640,465.571899 70.147720,481.613678 
	C70.852768,486.535248 72.751221,486.057068 76.056099,484.490356 
	C92.577866,476.658081 95.252838,454.983887 82.799049,440.868500 
	C81.479683,439.373077 80.106285,437.925354 78.570122,436.250824 
	C78.732674,434.165985 81.021294,433.169403 82.392944,431.191864 
M43.292027,479.178223 
	C47.410999,483.836151 52.566814,486.674072 58.697010,487.525726 
	C61.520622,487.918030 63.848942,487.984344 63.001503,483.414307 
	C60.592499,470.423157 58.561974,457.351624 56.809772,444.254547 
	C56.211124,439.779877 54.498753,439.963715 51.227638,441.342285 
	C37.049156,447.317657 32.518192,466.367706 43.292027,479.178223 
z"/>
<path fill="#000000" opacity="1.000000" stroke="none" 
	d="
M57.662560,349.684814 
	C43.271614,342.540070 35.959324,329.526398 37.712940,314.592407 
	C39.355331,300.605652 48.798145,289.473053 62.303402,286.339050 
	C68.468819,284.908295 74.804405,285.258728 81.073318,286.601562 
	C84.364410,287.306519 84.925407,288.876556 84.033173,291.887054 
	C79.793953,306.190582 75.666702,320.527496 71.543365,334.865112 
	C70.817657,337.388550 70.300430,339.971924 69.609222,342.851288 
	C78.466080,345.322021 86.046707,342.828156 91.697754,336.878662 
	C101.425407,326.637268 103.331390,314.521667 96.961487,301.572327 
	C99.020721,299.652588 101.259827,298.731049 104.093513,297.999786 
	C108.964333,305.828644 110.193130,314.014404 108.389534,323.120605 
	C104.640663,342.048370 90.279030,354.052460 71.446739,353.313263 
	C66.735245,353.128357 62.394569,351.365112 57.662560,349.684814 
M64.719864,331.431244 
	C68.254890,319.283600 71.789917,307.135986 75.343941,294.923035 
	C61.051334,292.175262 48.912151,300.442474 46.480854,314.411804 
	C44.446457,326.100677 51.478329,337.921326 62.000801,340.103912 
	C62.852634,337.506653 63.719894,334.862335 64.719864,331.431244 
z"/>
<path fill="#000000" opacity="1.000000" stroke="none" 
	d="
M134.619766,185.952667 
	C149.718460,193.072021 157.794754,204.303055 157.346664,221.012405 
	C157.001892,233.868912 146.958130,247.760590 133.452576,252.483978 
	C120.366859,257.060547 108.399094,254.250595 97.855942,245.076401 
	C90.703247,238.852448 86.640343,230.963562 85.943512,221.779968 
	C85.232040,212.403381 88.216949,203.697632 94.350609,196.448090 
	C105.121216,183.717987 118.586143,180.481613 134.619766,185.952667 
M141.220764,236.703354 
	C146.674347,230.184128 149.747131,223.027161 147.648834,214.294342 
	C144.269608,200.230438 129.567780,191.952972 118.792442,192.576538 
	C107.464828,193.232025 97.438736,202.764633 95.480469,213.412964 
	C93.413628,224.651733 99.509308,235.803314 111.096001,241.980423 
	C121.338890,247.441132 132.323502,245.675323 141.220764,236.703354 
z"/>
<path fill="#000000" opacity="1.000000" stroke="none" 
	d="
M666.802490,645.065186 
	C641.184753,658.833679 613.542786,638.666626 613.833923,613.887939 
	C614.004211,599.388184 621.296692,588.052979 634.538391,581.789490 
	C647.023926,575.883789 659.283569,577.377258 670.708191,585.512085 
	C688.454773,598.148438 690.424683,623.325012 674.295105,638.762329 
	C672.023132,640.936768 670.079773,643.499573 666.802490,645.065186 
M623.541931,607.135254 
	C622.476257,614.214661 622.845459,621.020813 627.493408,626.946777 
	C633.939331,635.165161 642.010193,641.190613 652.787292,640.388428 
	C666.644226,639.356995 679.522339,624.067688 675.655640,609.003967 
	C672.177063,595.452637 655.500977,584.858582 643.237610,588.115906 
	C633.246338,590.769653 627.526978,597.381226 623.541931,607.135254 
z"/>
<path fill="#000000" opacity="1.000000" stroke="none" 
	d="
M39.234581,418.442688 
	C34.188869,420.091766 29.764330,422.432312 24.888399,423.228180 
	C22.636276,417.210449 23.579359,414.446869 28.883202,412.438812 
	C45.479099,406.155487 62.133850,400.027649 78.760765,393.826111 
	C80.121651,393.318512 81.444405,392.708710 83.321571,391.921234 
	C79.375107,389.658234 76.004982,387.565430 72.495010,385.741699 
	C59.525097,379.002686 46.512154,372.346375 33.508827,365.671722 
	C26.945639,362.302826 26.767965,361.945923 28.297985,354.353424 
	C30.291782,353.341949 31.800756,354.791351 33.316963,355.572388 
	C52.811638,365.614532 72.229523,375.806732 91.775078,385.748199 
	C95.423309,387.603790 95.319473,390.389374 95.385338,393.617065 
	C95.452644,396.915680 93.671555,398.260651 90.889343,399.284027 
	C73.775764,405.578735 56.699707,411.975464 39.234581,418.442688 
z"/>
<path fill="#000000" opacity="1.000000" stroke="none" 
	d="
M650.214722,549.560913 
	C651.624512,545.340088 654.059998,546.360779 656.569946,547.712891 
	C671.937744,555.991638 687.311218,564.259888 702.668945,572.557373 
	C712.612305,577.929504 722.567261,583.282043 732.450134,588.763916 
	C739.076660,592.439453 739.090576,593.052246 733.684631,599.932739 
	C729.006409,598.818054 725.271790,595.606445 721.078369,593.390442 
	C698.154114,581.275696 675.348511,568.936340 652.422729,556.824463 
	C649.097717,555.067810 647.834778,553.240784 650.214722,549.560913 
z"/>
<path fill="#000000" opacity="1.000000" stroke="none" 
	d="
M43.068047,249.037994 
	C40.069176,247.267899 36.681110,246.986298 34.557617,244.549133 
	C34.456547,242.455734 35.677498,240.961517 36.247997,239.249542 
	C37.105202,236.677231 38.638050,236.412247 40.867313,237.450134 
	C43.272148,238.569809 45.775082,239.482086 48.162365,240.635605 
	C71.794632,252.054657 95.415794,263.496735 119.026215,274.960907 
	C121.093834,275.964844 123.062965,277.171692 124.746536,278.101318 
	C125.401268,279.805237 124.586426,280.812164 124.270760,281.893311 
	C123.084694,285.955414 120.958679,287.075684 116.863075,284.956848 
	C108.755447,280.762360 100.421722,277.006805 92.208153,273.014893 
	C75.926888,265.101929 59.663742,257.151733 43.068047,249.037994 
z"/>
<path fill="#000000" opacity="1.000000" stroke="none" 
	d="
M304.998108,128.235962 
	C301.679291,129.171173 300.436829,127.617538 299.753876,125.030144 
	C294.554535,105.332657 289.190613,85.677299 284.174530,65.933479 
	C282.511444,59.387367 288.673279,61.667671 291.671112,59.708694 
	C292.888733,63.211742 293.956360,66.283279 295.083649,69.526443 
	C302.015686,58.722282 307.397339,54.616772 316.462769,53.129684 
	C317.548645,54.602989 318.000153,56.321598 318.436310,58.109245 
	C318.995728,60.402172 318.761841,61.775219 316.105286,62.527199 
	C301.939850,66.536995 298.018616,77.718147 301.229370,91.643860 
	C303.498474,101.485344 306.175995,111.239441 308.933289,120.958183 
	C310.007324,124.743858 309.979858,127.441353 304.998108,128.235962 
z"/>
<path fill="#000000" opacity="1.000000" stroke="none" 
	d="
M475.382996,736.836060 
	C477.558136,745.920593 479.626312,754.600159 481.007477,763.730652 
	C477.901276,764.091492 474.714325,767.230835 472.251038,763.973816 
	C470.607269,761.800415 470.568695,758.413025 469.551056,754.589661 
	C465.776215,762.743347 460.335724,767.820923 452.708649,770.264832 
	C450.475525,770.980408 447.739807,773.078064 446.489471,768.510315 
	C445.475708,764.806885 445.638519,762.772766 449.918518,761.566040 
	C463.016205,757.873108 466.778320,746.243225 465.319000,736.963745 
	C463.855469,727.657532 461.471405,718.496094 459.494019,709.270508 
	C459.078186,707.330383 458.882202,705.314392 458.225647,703.460510 
	C456.817719,699.485229 458.204651,697.665588 462.242737,696.940247 
	C466.217896,696.226074 466.883484,698.238037 467.557983,701.516785 
	C469.959442,713.190186 472.722168,724.789246 475.382996,736.836060 
z"/>
<path fill="#000000" opacity="1.000000" stroke="none" 
	d="
M347.028656,119.305618 
	C342.027008,118.973778 340.422882,115.640152 340.025055,111.897316 
	C339.680023,108.650856 341.668579,106.335777 344.854858,105.211388 
	C348.388947,103.964264 351.056641,105.389206 353.098969,108.073380 
	C356.402344,112.414848 353.630127,117.802582 347.028656,119.305618 
z"/>
<path fill="#000000" opacity="1.000000" stroke="none" 
	d="
M415.177704,716.945190 
	C414.718323,716.589783 414.584076,716.487061 414.482819,716.358459 
	C411.587738,712.682678 411.851837,708.823547 414.789978,705.587524 
	C417.330811,702.789062 420.771790,703.063171 423.838074,705.122009 
	C426.439514,706.868713 427.461243,712.359619 425.533447,715.042114 
	C422.944641,718.644348 419.462067,719.295166 415.177704,716.945190 
z"/>
</svg>